<?xml version="1.0" encoding="UTF-8"?>
<svg width="212px" height="21px" viewBox="0 0 212 21" version="1.1" xmlns="http://www.w3.org/2000/svg" xmlns:xlink="http://www.w3.org/1999/xlink">
    <!-- Generator: Sketch 52.3 (67297) - http://www.bohemiancoding.com/sketch -->
    <title>MATRIX.CODE</title>
    <desc>Created with Sketch.</desc>
    <defs>
        <linearGradient x1="0.25781251%" y1="49.7500002%" x2="101.257813%" y2="49.7500002%" id="linearGradient-1">
            <stop stop-color="#3023AE" offset="0%"></stop>
            <stop stop-color="#53A0FD" offset="47.5247532%"></stop>
            <stop stop-color="#B4EC51" offset="100%"></stop>
        </linearGradient>
    </defs>
    <g id="Page-1" stroke="none" stroke-width="1" fill="none" fill-rule="evenodd">
        <path d="M0,0 L5.53243243,0 L11.3756757,14.109375 L11.6243243,14.109375 L17.4675676,0 L23,0 L23,21 L18.6486486,21 L18.6486486,7.33154297 L18.4725225,7.33154297 L12.9815315,20.8974609 L10.0184685,20.8974609 L4.52747748,7.28027344 L4.35135135,7.28027344 L4.35135135,21 L0,21 L0,0 Z M31.4728564,21 L27,21 L33.8153222,0 L39.1943176,0 L46,21 L41.5271436,21 L36.5819381,4.79882812 L36.4277017,4.79882812 L31.4728564,21 Z M32,13 L43,13 L43,17 L32,17 L32,13 Z M46,3.66064453 L46,0 L64,0 L64,3.66064453 L57.2901308,3.66064453 L57.2901308,21 L52.7098692,21 L52.7098692,3.66064453 L46,3.66064453 Z M73,11 L76.1040724,11 C76.9768772,11 77.7018573,10.8720443 78.2790347,10.616129 C78.856212,10.3602138 79.2873289,9.97634665 79.5723982,9.46451613 C79.8574675,8.95268561 80,8.31667047 80,7.55645161 C80,6.78870584 79.8574675,6.14140048 79.5723982,5.61451613 C79.2873289,5.08763177 78.8544524,4.68682933 78.2737557,4.41209677 C77.6930589,4.13736422 76.9627998,4 76.0829563,4 L73,4 L73,11 Z M72.2120623,13.5556641 L72.2120623,21 L68,21 L68,0 L75.8599222,0 C77.3644693,0 78.6501244,0.281979602 79.7169261,0.845947266 C80.7837278,1.40991493 81.5975977,2.20629368 82.1585603,3.23510742 C82.7195229,4.26392116 83,5.47216103 83,6.85986328 C83,8.2544015 82.7146591,9.45238757 82.1439689,10.4538574 C81.5732786,11.4553273 80.7480599,12.2226536 79.6682879,12.7558594 C78.588516,13.2890652 77.2834058,13.5556641 75.7529183,13.5556641 L72.2120623,13.5556641 Z M80.2633197,12 L86,21 L80.6127049,21 L75,12 L80.2633197,12 Z M93,0 L93,21 L89,21 L89,0 L93,0 Z M102.165946,0 L106.407568,7.15722656 L106.571892,7.15722656 L110.834054,0 L115.856216,0 L109.437297,10.5 L116,21 L110.885405,21 L106.571892,13.8325195 L106.407568,13.8325195 L102.094054,21 L97,21 L103.583243,10.5 L97.1232432,0 L102.165946,0 Z M121.5,21 C120.812497,21 120.223961,20.7050239 119.734375,20.1150628 C119.244789,19.5251017 119,18.8159037 119,17.9874477 C119,17.1673599 119.244789,16.4644381 119.734375,15.8786611 C120.223961,15.2928841 120.812497,15 121.5,15 C122.16667,15 122.749998,15.2928841 123.25,15.8786611 C123.750003,16.4644381 124,17.1673599 124,17.9874477 C124,18.5397517 123.883682,19.0439308 123.651042,19.5 C123.418402,19.9560692 123.114585,20.3200823 122.739583,20.5920502 C122.364581,20.8640181 121.951391,21 121.5,21 Z M147,7.4358365 L142.722192,7.4358365 C142.644058,6.87024432 142.484537,6.36620944 142.243625,5.92371673 C142.002712,5.48122402 141.693437,5.10361373 141.315789,4.79087452 C140.938142,4.47813532 140.503529,4.23859399 140.011937,4.07224335 C139.520345,3.9058927 138.988066,3.82271863 138.415084,3.82271863 C137.37981,3.82271863 136.478029,4.08388522 135.709712,4.60622624 C134.941396,5.12856725 134.345634,5.8871148 133.922409,6.88189163 C133.499184,7.87666847 133.287575,9.08269253 133.287575,10.5 C133.287575,11.9572316 133.500812,13.181554 133.927292,14.1730038 C134.353773,15.1644536 134.951163,15.9130203 135.719479,16.4187262 C136.487795,16.9244322 137.376555,17.1772814 138.385784,17.1772814 C138.952255,17.1772814 139.478023,17.1007612 139.963104,16.9477186 C140.448185,16.794676 140.879542,16.570106 141.257189,16.2740019 C141.634836,15.9778978 141.948995,15.6169223 142.199674,15.1910646 C142.450354,14.765207 142.624525,14.2794704 142.722192,13.7338403 L147,13.7538023 C146.88931,14.6920199 146.614218,15.5952903 146.174715,16.4636407 C145.735212,17.331991 145.145961,18.1071734 144.406945,18.789211 C143.667929,19.4712487 142.788936,20.0102167 141.76994,20.4061312 C140.750944,20.8020457 139.600115,21 138.317417,21 C136.533361,21 134.939779,20.5874566 133.536625,19.7623574 C132.133471,18.9372582 131.026591,17.7428785 130.215952,16.1791825 C129.405313,14.6154865 129,12.7224446 129,10.5 C129,8.2709014 129.410197,6.37453253 130.230602,4.8108365 C131.051008,3.24714047 132.164399,2.05442426 133.570808,1.23265209 C134.977218,0.410879922 136.559405,0 138.317417,0 C139.476403,0 140.552355,0.166348146 141.545307,0.49904943 C142.538258,0.831750713 143.418878,1.31582382 144.187195,1.95128327 C144.955511,2.58674272 145.582201,3.36358856 146.067282,4.28184411 C146.552363,5.20009965 146.863266,6.25141993 147,7.4358365 Z M170,10.5 C170,12.7290986 169.582295,14.6254675 168.746872,16.1891635 C167.911449,17.7528595 166.775555,18.9455757 165.339155,19.7673479 C163.902756,20.5891201 162.28972,21 160.5,21 C158.697071,21 157.079083,20.5874566 155.645985,19.7623574 C154.212888,18.9372582 153.080296,17.7428785 152.248175,16.1791825 C151.416054,14.6154865 151,12.7224446 151,10.5 C151,8.2709014 151.416054,6.37453253 152.248175,4.8108365 C153.080296,3.24714047 154.212888,2.05442426 155.645985,1.23265209 C157.079083,0.410879922 158.697071,0 160.5,0 C162.28972,0 163.902756,0.410879922 165.339155,1.23265209 C166.775555,2.05442426 167.911449,3.24714047 168.746872,4.8108365 C169.582295,6.37453253 170,8.2709014 170,10.5 Z M166,11 C166,9.48629039 165.772598,8.20977102 165.317788,7.17040359 C164.862978,6.13103616 164.223081,5.34280288 163.398077,4.80568012 C162.573073,4.26855735 161.607057,4 160.5,4 C159.392943,4 158.426927,4.26855735 157.601923,4.80568012 C156.776919,5.34280288 156.137022,6.13103616 155.682212,7.17040359 C155.227402,8.20977102 155,9.48629039 155,11 C155,12.5137096 155.227402,13.790229 155.682212,14.8295964 C156.137022,15.8689638 156.776919,16.6571971 157.601923,17.1943199 C158.426927,17.7314426 159.392943,18 160.5,18 C161.607057,18 162.573073,17.7314426 163.398077,17.1943199 C164.223081,16.6571971 164.862978,15.8689638 165.317788,14.8295964 C165.772598,13.790229 166,12.5137096 166,11 Z M182.5625,21 L175,21 L175,0 L182.625,0 C184.770844,0 186.618048,0.418696985 188.166667,1.25610352 C189.715286,2.09351005 190.907982,3.29491405 191.744792,4.86035156 C192.581601,6.42578908 193,8.29881722 193,10.4794922 C193,12.6670031 192.581601,14.5468671 191.744792,16.1191406 C190.907982,17.6914141 189.710077,18.897945 188.151042,19.7387695 C186.592006,20.579594 184.729177,21 182.5625,21 Z M180,18 L182.549247,18 C183.735811,18 184.735415,17.7552347 185.548088,17.2656968 C186.360761,16.7761589 186.972574,16.0150639 187.383546,14.982389 C187.794517,13.9497141 188,12.6151179 188,10.9785605 C188,9.35629613 187.794517,8.03063302 187.383546,7.00153139 C186.972574,5.97242977 186.362306,5.21490799 185.552723,4.72894334 C184.74314,4.24297868 183.745081,4 182.558517,4 L180,4 L180,18 Z M198,21 L198,0 L211.959538,0 L211.959538,3.66064453 L202.380058,3.66064453 L202.380058,8.66455078 L211.241329,8.66455078 L211.241329,12.3251953 L202.380058,12.3251953 L202.380058,17.3393555 L212,17.3393555 L212,21 L198,21 Z" id="MATRIX.CODE" fill="url(#linearGradient-1)"></path>
    </g>
</svg>